<svg xmlns="http://www.w3.org/2000/svg" xmlns:xlink="http://www.w3.org/1999/xlink" width="478" zoomAndPan="magnify" viewBox="0 0 358.5 92.999996" height="124" preserveAspectRatio="xMidYMid meet" version="1.0"><defs><g/><clipPath id="f6e97c33ad"><path d="M 0 12.566406 L 59 12.566406 L 59 71 L 0 71 Z M 0 12.566406 " clip-rule="nonzero"/></clipPath><clipPath id="91d4da5ac5"><path d="M 14 12.566406 L 71.898438 12.566406 L 71.898438 71 L 14 71 Z M 14 12.566406 " clip-rule="nonzero"/></clipPath></defs><g clip-path="url(#f6e97c33ad)"><path fill="#4a6cf7" d="M 0.0117188 11.546875 C 32.382812 11.546875 58.621094 37.9375 58.621094 70.492188 L 4.699219 70.492188 C 2.109375 70.492188 0.0117188 68.382812 0.0117188 65.777344 Z M 0.0117188 11.546875 " fill-opacity="1" fill-rule="nonzero"/></g><g clip-path="url(#91d4da5ac5)"><path fill="#4a6cf7" d="M 14.078125 70.492188 C 14.078125 37.9375 40.320312 11.546875 72.6875 11.546875 L 72.6875 65.777344 C 72.6875 68.382812 70.589844 70.492188 68 70.492188 Z M 14.078125 70.492188 " fill-opacity="0.5" fill-rule="nonzero"/></g><g fill="#000000" fill-opacity="1"><g transform="translate(76.016282, 58.691091)"><g><path d="M 11.921875 -15.921875 L 11.921875 0 L 2.890625 0 L 2.890625 -39.671875 L 11.921875 -39.671875 L 11.921875 -23.859375 L 24.71875 -23.859375 L 24.71875 -39.671875 L 33.765625 -39.671875 L 33.765625 0 L 24.71875 0 L 24.71875 -15.921875 Z M 11.921875 -15.921875 "/></g></g></g><g fill="#000000" fill-opacity="1"><g transform="translate(112.666184, 58.691091)"><g><path d="M 4.5625 -3.046875 C 2.257812 -5.566406 1.109375 -8.65625 1.109375 -12.3125 C 1.109375 -15.96875 2.257812 -19.0625 4.5625 -21.59375 C 6.875 -24.125 9.8125 -25.390625 13.375 -25.390625 C 16.644531 -25.390625 19.335938 -24.363281 21.453125 -22.3125 L 21.453125 -24.671875 L 29.96875 -24.671875 L 29.96875 0 L 21.546875 0 L 21.546875 -2.796875 L 21.453125 -2.796875 C 19.335938 -0.453125 16.644531 0.71875 13.375 0.71875 C 9.8125 0.71875 6.875 -0.535156 4.5625 -3.046875 Z M 11.796875 -16.484375 C 10.691406 -15.398438 10.140625 -14.007812 10.140625 -12.3125 C 10.140625 -10.613281 10.671875 -9.226562 11.734375 -8.15625 C 12.796875 -7.082031 14.191406 -6.546875 15.921875 -6.546875 C 17.585938 -6.546875 18.957031 -7.085938 20.03125 -8.171875 C 21.101562 -9.265625 21.640625 -10.644531 21.640625 -12.3125 C 21.640625 -14.007812 21.085938 -15.398438 19.984375 -16.484375 C 18.878906 -17.578125 17.523438 -18.125 15.921875 -18.125 C 14.285156 -18.125 12.910156 -17.578125 11.796875 -16.484375 Z M 11.796875 -16.484375 "/></g></g></g><g fill="#000000" fill-opacity="1"><g transform="translate(145.516431, 58.691091)"><g><path d="M 16.015625 -18.421875 C 14.410156 -18.421875 13.03125 -17.828125 11.875 -16.640625 C 10.71875 -15.453125 10.140625 -14.023438 10.140625 -12.359375 C 10.140625 -10.660156 10.71875 -9.21875 11.875 -8.03125 C 13.03125 -6.84375 14.410156 -6.25 16.015625 -6.25 C 16.785156 -6.25 17.515625 -6.34375 18.203125 -6.53125 C 18.890625 -6.726562 19.394531 -6.925781 19.71875 -7.125 L 20.15625 -7.40625 L 23.03125 -1.484375 C 22.8125 -1.328125 22.5 -1.128906 22.09375 -0.890625 C 21.695312 -0.648438 20.785156 -0.320312 19.359375 0.09375 C 17.929688 0.507812 16.398438 0.71875 14.765625 0.71875 C 11.140625 0.71875 7.957031 -0.550781 5.21875 -3.09375 C 2.476562 -5.644531 1.109375 -8.703125 1.109375 -12.265625 C 1.109375 -15.859375 2.476562 -18.941406 5.21875 -21.515625 C 7.957031 -24.097656 11.140625 -25.390625 14.765625 -25.390625 C 16.398438 -25.390625 17.90625 -25.195312 19.28125 -24.8125 C 20.664062 -24.425781 21.644531 -24.039062 22.21875 -23.65625 L 23.03125 -23.078125 L 20.15625 -17.265625 C 19.09375 -18.035156 17.710938 -18.421875 16.015625 -18.421875 Z M 16.015625 -18.421875 "/></g></g></g><g fill="#000000" fill-opacity="1"><g transform="translate(169.132057, 58.691091)"><g><path d="M 31.0625 -24.671875 L 19.328125 -12.890625 L 32.21875 0 L 21.25 0 L 11.390625 -9.859375 L 11.390625 0 L 2.890625 0 L 2.890625 -41.359375 L 11.390625 -41.359375 L 11.390625 -16.0625 L 20 -24.671875 Z M 31.0625 -24.671875 "/></g></g></g><g fill="#000000" fill-opacity="1"><g transform="translate(200.202712, 58.691091)"><g><path d="M 35.6875 0 L 33.8125 -23.515625 L 33.5625 -23.515625 L 25.4375 -0.234375 L 20.0625 -0.234375 L 11.921875 -23.515625 L 11.6875 -23.515625 L 9.8125 0 L 0.765625 0 L 4.328125 -39.671875 L 13.953125 -39.671875 L 22.75 -16.78125 L 31.546875 -39.671875 L 41.171875 -39.671875 L 44.734375 0 Z M 35.6875 0 "/></g></g></g><g fill="#000000" fill-opacity="1"><g transform="translate(245.702461, 58.691091)"><g><path d="M 11.921875 -39.671875 L 11.921875 -7.9375 L 25.578125 -7.9375 L 25.578125 0 L 2.890625 0 L 2.890625 -39.671875 Z M 11.921875 -39.671875 "/></g></g></g><g fill="#000000" fill-opacity="1"><g transform="translate(272.87727, 58.691091)"><g><path d="M 8.375 -10.296875 C 9.90625 -10.296875 11.207031 -9.753906 12.28125 -8.671875 C 13.363281 -7.597656 13.90625 -6.296875 13.90625 -4.765625 C 13.90625 -3.253906 13.363281 -1.960938 12.28125 -0.890625 C 11.207031 0.179688 9.90625 0.71875 8.375 0.71875 C 6.863281 0.71875 5.570312 0.179688 4.5 -0.890625 C 3.425781 -1.960938 2.890625 -3.253906 2.890625 -4.765625 C 2.890625 -6.296875 3.425781 -7.597656 4.5 -8.671875 C 5.570312 -9.753906 6.863281 -10.296875 8.375 -10.296875 Z M 8.375 -10.296875 "/></g></g></g><g fill="#000000" fill-opacity="1"><g transform="translate(289.663124, 58.691091)"><g><path d="M 3.703125 -38.421875 C 4.691406 -39.421875 5.875 -39.921875 7.25 -39.921875 C 8.632812 -39.921875 9.820312 -39.421875 10.8125 -38.421875 C 11.8125 -37.429688 12.3125 -36.242188 12.3125 -34.859375 C 12.3125 -33.484375 11.8125 -32.296875 10.8125 -31.296875 C 9.820312 -30.304688 8.632812 -29.8125 7.25 -29.8125 C 5.875 -29.8125 4.691406 -30.304688 3.703125 -31.296875 C 2.710938 -32.296875 2.21875 -33.484375 2.21875 -34.859375 C 2.21875 -36.242188 2.710938 -37.429688 3.703125 -38.421875 Z M 2.890625 -24.671875 L 2.890625 0 L 11.390625 0 L 11.390625 -24.671875 Z M 2.890625 -24.671875 "/></g></g></g><g fill="#000000" fill-opacity="1"><g transform="translate(304.188397, 58.691091)"><g><path d="M 5.21875 -2.9375 C 2.476562 -5.375 1.109375 -8.5 1.109375 -12.3125 C 1.109375 -16.125 2.535156 -19.253906 5.390625 -21.703125 C 8.242188 -24.160156 11.769531 -25.390625 15.96875 -25.390625 C 20.101562 -25.390625 23.585938 -24.15625 26.421875 -21.6875 C 29.265625 -19.21875 30.6875 -16.09375 30.6875 -12.3125 C 30.6875 -8.53125 29.296875 -5.410156 26.515625 -2.953125 C 23.742188 -0.503906 20.226562 0.71875 15.96875 0.71875 C 11.539062 0.71875 7.957031 -0.5 5.21875 -2.9375 Z M 11.796875 -16.484375 C 10.691406 -15.398438 10.140625 -14.007812 10.140625 -12.3125 C 10.140625 -10.613281 10.671875 -9.226562 11.734375 -8.15625 C 12.796875 -7.082031 14.191406 -6.546875 15.921875 -6.546875 C 17.585938 -6.546875 18.957031 -7.085938 20.03125 -8.171875 C 21.101562 -9.265625 21.640625 -10.644531 21.640625 -12.3125 C 21.640625 -14.007812 21.085938 -15.398438 19.984375 -16.484375 C 18.878906 -17.578125 17.523438 -18.125 15.921875 -18.125 C 14.285156 -18.125 12.910156 -17.578125 11.796875 -16.484375 Z M 11.796875 -16.484375 "/></g></g></g></svg>